<mxfile host="app.diagrams.net" agent="Mozilla/5.0 (Windows NT 10.0; Win64; x64) AppleWebKit/537.36 (KHTML, like Gecko) Chrome/132.0.0.0 Safari/537.36" version="26.0.10">
  <diagram id="vZv2f6N4h2fVlUgS8-mH" name="Page-1">
    <mxGraphModel dx="2222" dy="685" grid="1" gridSize="10" guides="1" tooltips="1" connect="1" arrows="1" fold="1" page="1" pageScale="1" pageWidth="827" pageHeight="1169" math="0" shadow="0">
      <root>
        <mxCell id="0" />
        <mxCell id="1" parent="0" />
        <mxCell id="Nu7ug7uPrZ7eWtUiJU7z-2" value="Assignment" style="swimlane;fontStyle=1;align=center;verticalAlign=top;childLayout=stackLayout;horizontal=1;startSize=26;horizontalStack=0;resizeParent=1;resizeParentMax=0;resizeLast=0;collapsible=1;marginBottom=0;" parent="1" vertex="1">
          <mxGeometry x="408.5" y="334" width="167" height="34" as="geometry">
            <mxRectangle x="300" y="334" width="100" height="30" as="alternateBounds" />
          </mxGeometry>
        </mxCell>
        <mxCell id="Nu7ug7uPrZ7eWtUiJU7z-4" value="" style="line;strokeWidth=1;fillColor=none;align=left;verticalAlign=middle;spacingTop=-1;spacingLeft=3;spacingRight=3;rotatable=0;labelPosition=right;points=[];portConstraint=eastwest;" parent="Nu7ug7uPrZ7eWtUiJU7z-2" vertex="1">
          <mxGeometry y="26" width="167" height="8" as="geometry" />
        </mxCell>
        <mxCell id="Nu7ug7uPrZ7eWtUiJU7z-6" value="&lt;p style=&quot;margin:0px;margin-top:4px;text-align:center;&quot;&gt;&lt;i&gt;&amp;lt;&amp;lt;Interface&amp;gt;&amp;gt;&lt;/i&gt;&lt;br&gt;&lt;b&gt;Expression&lt;/b&gt;&lt;/p&gt;&lt;hr size=&quot;1&quot; style=&quot;border-style:solid;&quot;&gt;&lt;p style=&quot;margin:0px;margin-left:4px;&quot;&gt;&lt;br&gt;&lt;/p&gt;" style="verticalAlign=top;align=left;overflow=fill;html=1;whiteSpace=wrap;" parent="1" vertex="1">
          <mxGeometry x="490" y="210" width="190" height="40" as="geometry" />
        </mxCell>
        <mxCell id="Nu7ug7uPrZ7eWtUiJU7z-8" value="2" style="endArrow=open;html=1;endSize=12;startArrow=diamondThin;startSize=14;startFill=0;edgeStyle=orthogonalEdgeStyle;align=left;verticalAlign=bottom;exitX=0.5;exitY=1;exitDx=0;exitDy=0;entryX=0.5;entryY=1;entryDx=0;entryDy=0;" parent="1" source="Nu7ug7uPrZ7eWtUiJU7z-2" target="Nu7ug7uPrZ7eWtUiJU7z-6" edge="1">
          <mxGeometry x="0.7799" relative="1" as="geometry">
            <mxPoint x="467" y="399" as="sourcePoint" />
            <mxPoint x="537" y="490" as="targetPoint" />
            <mxPoint as="offset" />
            <Array as="points">
              <mxPoint x="492" y="390" />
              <mxPoint x="585" y="390" />
            </Array>
          </mxGeometry>
        </mxCell>
        <mxCell id="Nu7ug7uPrZ7eWtUiJU7z-9" value="&lt;p style=&quot;margin:0px;margin-top:4px;text-align:center;&quot;&gt;&lt;i&gt;&amp;lt;&amp;lt;Interface&amp;gt;&amp;gt;&lt;/i&gt;&lt;br&gt;&lt;b&gt;Statement&lt;/b&gt;&lt;/p&gt;&lt;hr size=&quot;1&quot; style=&quot;border-style:solid;&quot;&gt;&lt;p style=&quot;margin:0px;margin-left:4px;&quot;&gt;&lt;br&gt;&lt;/p&gt;" style="verticalAlign=top;align=left;overflow=fill;html=1;whiteSpace=wrap;" parent="1" vertex="1">
          <mxGeometry x="288.5" y="210" width="190" height="40" as="geometry" />
        </mxCell>
        <mxCell id="Nu7ug7uPrZ7eWtUiJU7z-10" value="" style="endArrow=block;dashed=1;endFill=0;endSize=12;html=1;entryX=0.5;entryY=1;entryDx=0;entryDy=0;exitX=0.5;exitY=0;exitDx=0;exitDy=0;" parent="1" source="Nu7ug7uPrZ7eWtUiJU7z-2" target="Nu7ug7uPrZ7eWtUiJU7z-9" edge="1">
          <mxGeometry width="160" relative="1" as="geometry">
            <mxPoint x="250" y="470" as="sourcePoint" />
            <mxPoint x="410" y="470" as="targetPoint" />
          </mxGeometry>
        </mxCell>
        <mxCell id="Nu7ug7uPrZ7eWtUiJU7z-11" value="&lt;p style=&quot;margin:0px;margin-top:4px;text-align:center;&quot;&gt;&lt;i&gt;&amp;lt;&amp;lt;Interface&amp;gt;&amp;gt;&lt;/i&gt;&lt;br&gt;&lt;b&gt;ASTNode&lt;/b&gt;&lt;/p&gt;&lt;hr size=&quot;1&quot; style=&quot;border-style:solid;&quot;&gt;&lt;p style=&quot;margin:0px;margin-left:4px;&quot;&gt;&lt;br&gt;&lt;/p&gt;" style="verticalAlign=top;align=left;overflow=fill;html=1;whiteSpace=wrap;" parent="1" vertex="1">
          <mxGeometry x="60" y="50" width="190" height="40" as="geometry" />
        </mxCell>
        <mxCell id="Nu7ug7uPrZ7eWtUiJU7z-12" value="" style="endArrow=block;endSize=16;endFill=0;html=1;entryX=1;entryY=0.5;entryDx=0;entryDy=0;exitX=0;exitY=0.5;exitDx=0;exitDy=0;" parent="1" source="Nu7ug7uPrZ7eWtUiJU7z-13" target="Nu7ug7uPrZ7eWtUiJU7z-11" edge="1">
          <mxGeometry width="160" relative="1" as="geometry">
            <mxPoint x="528.5" y="139.66000000000003" as="sourcePoint" />
            <mxPoint x="688.5" y="139.66000000000003" as="targetPoint" />
          </mxGeometry>
        </mxCell>
        <mxCell id="Nu7ug7uPrZ7eWtUiJU7z-13" value="&lt;p style=&quot;margin:0px;margin-top:4px;text-align:center;&quot;&gt;&lt;i&gt;&amp;lt;&amp;lt;Interface&amp;gt;&amp;gt;&lt;/i&gt;&lt;br&gt;&lt;b&gt;Locatable&lt;/b&gt;&lt;/p&gt;&lt;div&gt;&lt;hr size=&quot;1&quot; style=&quot;border-style:solid;&quot;&gt;&lt;p style=&quot;margin:0px;margin-left:4px;&quot;&gt;+ getLine(): int&lt;/p&gt;&lt;p style=&quot;margin:0px;margin-left:4px;&quot;&gt;+ getCol(): int&lt;/p&gt;&lt;/div&gt;" style="verticalAlign=top;align=left;overflow=fill;html=1;whiteSpace=wrap;" parent="1" vertex="1">
          <mxGeometry x="288.5" y="30" width="190" height="80" as="geometry" />
        </mxCell>
        <mxCell id="Nu7ug7uPrZ7eWtUiJU7z-14" value="" style="endArrow=block;dashed=1;endFill=0;endSize=12;html=1;entryX=0.5;entryY=1;entryDx=0;entryDy=0;exitX=0.5;exitY=0;exitDx=0;exitDy=0;" parent="1" source="Nu7ug7uPrZ7eWtUiJU7z-9" target="Nu7ug7uPrZ7eWtUiJU7z-13" edge="1">
          <mxGeometry width="160" relative="1" as="geometry">
            <mxPoint x="394" y="370" as="sourcePoint" />
            <mxPoint x="394" y="320" as="targetPoint" />
          </mxGeometry>
        </mxCell>
        <mxCell id="F5KSVw0_bZo6kfACtw9F-1" value="" style="endArrow=block;dashed=1;endFill=0;endSize=12;html=1;entryX=0.5;entryY=1;entryDx=0;entryDy=0;exitX=0.5;exitY=0;exitDx=0;exitDy=0;" parent="1" source="Nu7ug7uPrZ7eWtUiJU7z-6" target="Nu7ug7uPrZ7eWtUiJU7z-13" edge="1">
          <mxGeometry width="160" relative="1" as="geometry">
            <mxPoint x="394" y="220" as="sourcePoint" />
            <mxPoint x="394" y="190" as="targetPoint" />
          </mxGeometry>
        </mxCell>
        <mxCell id="F5KSVw0_bZo6kfACtw9F-2" value="Read" style="swimlane;fontStyle=1;align=center;verticalAlign=top;childLayout=stackLayout;horizontal=1;startSize=26;horizontalStack=0;resizeParent=1;resizeParentMax=0;resizeLast=0;collapsible=1;marginBottom=0;" parent="1" vertex="1">
          <mxGeometry x="230" y="334" width="167" height="34" as="geometry">
            <mxRectangle x="121.5" y="334" width="70" height="30" as="alternateBounds" />
          </mxGeometry>
        </mxCell>
        <mxCell id="F5KSVw0_bZo6kfACtw9F-3" value="" style="line;strokeWidth=1;fillColor=none;align=left;verticalAlign=middle;spacingTop=-1;spacingLeft=3;spacingRight=3;rotatable=0;labelPosition=right;points=[];portConstraint=eastwest;" parent="F5KSVw0_bZo6kfACtw9F-2" vertex="1">
          <mxGeometry y="26" width="167" height="8" as="geometry" />
        </mxCell>
        <mxCell id="F5KSVw0_bZo6kfACtw9F-4" value="1" style="endArrow=open;html=1;endSize=12;startArrow=diamondThin;startSize=14;startFill=0;edgeStyle=orthogonalEdgeStyle;align=left;verticalAlign=bottom;exitX=0.5;exitY=1;exitDx=0;exitDy=0;" parent="1" source="F5KSVw0_bZo6kfACtw9F-2" edge="1">
          <mxGeometry x="0.9146" y="-10" relative="1" as="geometry">
            <mxPoint x="477" y="317" as="sourcePoint" />
            <mxPoint x="600" y="250" as="targetPoint" />
            <mxPoint as="offset" />
            <Array as="points">
              <mxPoint x="314" y="400" />
              <mxPoint x="600" y="400" />
            </Array>
          </mxGeometry>
        </mxCell>
        <mxCell id="F5KSVw0_bZo6kfACtw9F-5" value="" style="endArrow=block;dashed=1;endFill=0;endSize=12;html=1;entryX=0.5;entryY=1;entryDx=0;entryDy=0;exitX=0.5;exitY=0;exitDx=0;exitDy=0;" parent="1" source="F5KSVw0_bZo6kfACtw9F-2" target="Nu7ug7uPrZ7eWtUiJU7z-9" edge="1">
          <mxGeometry width="160" relative="1" as="geometry">
            <mxPoint x="204.86" y="270" as="sourcePoint" />
            <mxPoint x="204.86" y="230" as="targetPoint" />
          </mxGeometry>
        </mxCell>
        <mxCell id="HR1X8e-F4O4L8hkxpuP_-1" value="FuncInvocation" style="swimlane;fontStyle=1;align=center;verticalAlign=top;childLayout=stackLayout;horizontal=1;startSize=26;horizontalStack=0;resizeParent=1;resizeParentMax=0;resizeLast=0;collapsible=1;marginBottom=0;" parent="1" vertex="1">
          <mxGeometry x="-47" y="334" width="167" height="34" as="geometry" />
        </mxCell>
        <mxCell id="HR1X8e-F4O4L8hkxpuP_-3" value="" style="line;strokeWidth=1;fillColor=none;align=left;verticalAlign=middle;spacingTop=-1;spacingLeft=3;spacingRight=3;rotatable=0;labelPosition=right;points=[];portConstraint=eastwest;" parent="HR1X8e-F4O4L8hkxpuP_-1" vertex="1">
          <mxGeometry y="26" width="167" height="8" as="geometry" />
        </mxCell>
        <mxCell id="HR1X8e-F4O4L8hkxpuP_-4" value="" style="endArrow=block;dashed=1;endFill=0;endSize=12;html=1;entryX=0.5;entryY=1;entryDx=0;entryDy=0;exitX=0.5;exitY=0;exitDx=0;exitDy=0;" parent="1" source="HR1X8e-F4O4L8hkxpuP_-1" target="Nu7ug7uPrZ7eWtUiJU7z-9" edge="1">
          <mxGeometry width="160" relative="1" as="geometry">
            <mxPoint x="215" y="344" as="sourcePoint" />
            <mxPoint x="394" y="260" as="targetPoint" />
          </mxGeometry>
        </mxCell>
        <mxCell id="HR1X8e-F4O4L8hkxpuP_-13" value="While" style="swimlane;fontStyle=1;align=center;verticalAlign=top;childLayout=stackLayout;horizontal=1;startSize=26;horizontalStack=0;resizeParent=1;resizeParentMax=0;resizeLast=0;collapsible=1;marginBottom=0;" parent="1" vertex="1">
          <mxGeometry x="-330" y="334" width="167" height="34" as="geometry" />
        </mxCell>
        <mxCell id="HR1X8e-F4O4L8hkxpuP_-15" value="" style="line;strokeWidth=1;fillColor=none;align=left;verticalAlign=middle;spacingTop=-1;spacingLeft=3;spacingRight=3;rotatable=0;labelPosition=right;points=[];portConstraint=eastwest;" parent="HR1X8e-F4O4L8hkxpuP_-13" vertex="1">
          <mxGeometry y="26" width="167" height="8" as="geometry" />
        </mxCell>
        <mxCell id="HR1X8e-F4O4L8hkxpuP_-16" value="" style="endArrow=open;html=1;endSize=12;startArrow=diamondThin;startSize=14;startFill=0;edgeStyle=orthogonalEdgeStyle;align=left;verticalAlign=bottom;exitX=0.5;exitY=1;exitDx=0;exitDy=0;entryX=0.88;entryY=0.979;entryDx=0;entryDy=0;entryPerimeter=0;" parent="1" source="HR1X8e-F4O4L8hkxpuP_-13" target="Nu7ug7uPrZ7eWtUiJU7z-6" edge="1">
          <mxGeometry x="0.859" y="1" relative="1" as="geometry">
            <mxPoint x="-146" y="404" as="sourcePoint" />
            <mxPoint x="643" y="260" as="targetPoint" />
            <mxPoint as="offset" />
            <Array as="points">
              <mxPoint x="-246" y="430" />
              <mxPoint x="657" y="430" />
            </Array>
          </mxGeometry>
        </mxCell>
        <mxCell id="HR1X8e-F4O4L8hkxpuP_-17" value="1" style="edgeLabel;html=1;align=center;verticalAlign=middle;resizable=0;points=[];fontSize=12;" parent="HR1X8e-F4O4L8hkxpuP_-16" connectable="0" vertex="1">
          <mxGeometry x="0.9477" y="-3" relative="1" as="geometry">
            <mxPoint as="offset" />
          </mxGeometry>
        </mxCell>
        <mxCell id="HR1X8e-F4O4L8hkxpuP_-18" value="" style="endArrow=block;dashed=1;endFill=0;endSize=12;html=1;entryX=0.5;entryY=1;entryDx=0;entryDy=0;exitX=0.5;exitY=0;exitDx=0;exitDy=0;" parent="1" source="HR1X8e-F4O4L8hkxpuP_-13" target="Nu7ug7uPrZ7eWtUiJU7z-9" edge="1">
          <mxGeometry width="160" relative="1" as="geometry">
            <mxPoint x="-146" y="344" as="sourcePoint" />
            <mxPoint x="394" y="260" as="targetPoint" />
          </mxGeometry>
        </mxCell>
        <mxCell id="HR1X8e-F4O4L8hkxpuP_-19" value="Conditional" style="swimlane;fontStyle=1;align=center;verticalAlign=top;childLayout=stackLayout;horizontal=1;startSize=26;horizontalStack=0;resizeParent=1;resizeParentMax=0;resizeLast=0;collapsible=1;marginBottom=0;" parent="1" vertex="1">
          <mxGeometry x="-510" y="334" width="167" height="34" as="geometry" />
        </mxCell>
        <mxCell id="HR1X8e-F4O4L8hkxpuP_-20" value="" style="line;strokeWidth=1;fillColor=none;align=left;verticalAlign=middle;spacingTop=-1;spacingLeft=3;spacingRight=3;rotatable=0;labelPosition=right;points=[];portConstraint=eastwest;" parent="HR1X8e-F4O4L8hkxpuP_-19" vertex="1">
          <mxGeometry y="26" width="167" height="8" as="geometry" />
        </mxCell>
        <mxCell id="HR1X8e-F4O4L8hkxpuP_-22" value="" style="endArrow=open;html=1;endSize=12;startArrow=diamondThin;startSize=14;startFill=0;edgeStyle=orthogonalEdgeStyle;align=left;verticalAlign=bottom;exitX=0.25;exitY=1;exitDx=0;exitDy=0;entryX=0;entryY=0.5;entryDx=0;entryDy=0;" parent="1" source="HR1X8e-F4O4L8hkxpuP_-13" target="Nu7ug7uPrZ7eWtUiJU7z-9" edge="1">
          <mxGeometry x="0.859" y="1" relative="1" as="geometry">
            <mxPoint x="-139" y="378" as="sourcePoint" />
            <mxPoint x="667" y="259" as="targetPoint" />
            <mxPoint as="offset" />
            <Array as="points">
              <mxPoint x="-288" y="440" />
              <mxPoint x="-530" y="440" />
              <mxPoint x="-530" y="230" />
            </Array>
          </mxGeometry>
        </mxCell>
        <mxCell id="HR1X8e-F4O4L8hkxpuP_-23" value="*" style="edgeLabel;html=1;align=center;verticalAlign=middle;resizable=0;points=[];fontSize=12;" parent="HR1X8e-F4O4L8hkxpuP_-22" connectable="0" vertex="1">
          <mxGeometry x="0.9477" y="-3" relative="1" as="geometry">
            <mxPoint x="8" y="-3" as="offset" />
          </mxGeometry>
        </mxCell>
        <mxCell id="HR1X8e-F4O4L8hkxpuP_-26" value="" style="endArrow=block;dashed=1;endFill=0;endSize=12;html=1;entryX=0.5;entryY=1;entryDx=0;entryDy=0;exitX=0.5;exitY=0;exitDx=0;exitDy=0;" parent="1" source="HR1X8e-F4O4L8hkxpuP_-19" target="Nu7ug7uPrZ7eWtUiJU7z-9" edge="1">
          <mxGeometry width="160" relative="1" as="geometry">
            <mxPoint x="-139" y="344" as="sourcePoint" />
            <mxPoint x="394" y="260" as="targetPoint" />
          </mxGeometry>
        </mxCell>
        <mxCell id="HR1X8e-F4O4L8hkxpuP_-27" value="" style="endArrow=open;html=1;endSize=12;startArrow=diamondThin;startSize=14;startFill=0;edgeStyle=orthogonalEdgeStyle;align=left;verticalAlign=bottom;exitX=0.5;exitY=1;exitDx=0;exitDy=0;entryX=0.878;entryY=0.994;entryDx=0;entryDy=0;entryPerimeter=0;" parent="1" source="HR1X8e-F4O4L8hkxpuP_-19" target="Nu7ug7uPrZ7eWtUiJU7z-6" edge="1">
          <mxGeometry x="0.859" y="1" relative="1" as="geometry">
            <mxPoint x="-139" y="378" as="sourcePoint" />
            <mxPoint x="667" y="259" as="targetPoint" />
            <mxPoint as="offset" />
            <Array as="points">
              <mxPoint x="-426" y="400" />
              <mxPoint x="-426" y="400" />
              <mxPoint x="-426" y="430" />
              <mxPoint x="657" y="430" />
            </Array>
          </mxGeometry>
        </mxCell>
        <mxCell id="HR1X8e-F4O4L8hkxpuP_-29" value="" style="endArrow=open;html=1;endSize=12;startArrow=diamondThin;startSize=14;startFill=0;edgeStyle=orthogonalEdgeStyle;align=left;verticalAlign=bottom;entryX=0;entryY=0.5;entryDx=0;entryDy=0;exitX=0.25;exitY=1;exitDx=0;exitDy=0;" parent="1" source="HR1X8e-F4O4L8hkxpuP_-19" target="Nu7ug7uPrZ7eWtUiJU7z-9" edge="1">
          <mxGeometry x="0.859" y="1" relative="1" as="geometry">
            <mxPoint x="-370" y="370" as="sourcePoint" />
            <mxPoint x="288.5" y="260" as="targetPoint" />
            <mxPoint as="offset" />
            <Array as="points">
              <mxPoint x="-468" y="440" />
              <mxPoint x="-530" y="440" />
              <mxPoint x="-530" y="230" />
            </Array>
          </mxGeometry>
        </mxCell>
        <mxCell id="HR1X8e-F4O4L8hkxpuP_-31" value="Return" style="swimlane;fontStyle=1;align=center;verticalAlign=top;childLayout=stackLayout;horizontal=1;startSize=26;horizontalStack=0;resizeParent=1;resizeParentMax=0;resizeLast=0;collapsible=1;marginBottom=0;" parent="1" vertex="1">
          <mxGeometry x="-147" y="334" width="81.5" height="34" as="geometry">
            <mxRectangle x="300" y="334" width="100" height="30" as="alternateBounds" />
          </mxGeometry>
        </mxCell>
        <mxCell id="HR1X8e-F4O4L8hkxpuP_-32" value="" style="line;strokeWidth=1;fillColor=none;align=left;verticalAlign=middle;spacingTop=-1;spacingLeft=3;spacingRight=3;rotatable=0;labelPosition=right;points=[];portConstraint=eastwest;" parent="HR1X8e-F4O4L8hkxpuP_-31" vertex="1">
          <mxGeometry y="26" width="81.5" height="8" as="geometry" />
        </mxCell>
        <mxCell id="HR1X8e-F4O4L8hkxpuP_-35" value="" style="endArrow=open;html=1;endSize=12;startArrow=diamondThin;startSize=14;startFill=0;edgeStyle=orthogonalEdgeStyle;align=left;verticalAlign=bottom;exitX=0.5;exitY=1;exitDx=0;exitDy=0;entryX=0.879;entryY=0.978;entryDx=0;entryDy=0;entryPerimeter=0;" parent="1" source="HR1X8e-F4O4L8hkxpuP_-31" target="Nu7ug7uPrZ7eWtUiJU7z-6" edge="1">
          <mxGeometry x="0.859" y="1" relative="1" as="geometry">
            <mxPoint x="-140" y="378" as="sourcePoint" />
            <mxPoint x="660" y="250" as="targetPoint" />
            <mxPoint as="offset" />
            <Array as="points">
              <mxPoint x="-106" y="430" />
              <mxPoint x="657" y="430" />
            </Array>
          </mxGeometry>
        </mxCell>
        <mxCell id="HR1X8e-F4O4L8hkxpuP_-36" value="1" style="edgeLabel;html=1;align=center;verticalAlign=middle;resizable=0;points=[];fontSize=12;" parent="HR1X8e-F4O4L8hkxpuP_-35" connectable="0" vertex="1">
          <mxGeometry x="0.9477" y="-3" relative="1" as="geometry">
            <mxPoint x="2" as="offset" />
          </mxGeometry>
        </mxCell>
        <mxCell id="HR1X8e-F4O4L8hkxpuP_-37" value="" style="endArrow=block;dashed=1;endFill=0;endSize=12;html=1;entryX=0.5;entryY=1;entryDx=0;entryDy=0;exitX=0.5;exitY=0;exitDx=0;exitDy=0;" parent="1" source="HR1X8e-F4O4L8hkxpuP_-31" target="Nu7ug7uPrZ7eWtUiJU7z-9" edge="1">
          <mxGeometry width="160" relative="1" as="geometry">
            <mxPoint x="144" y="344" as="sourcePoint" />
            <mxPoint x="394" y="260" as="targetPoint" />
          </mxGeometry>
        </mxCell>
        <mxCell id="CxQEVoUlbE7OvthY8f_t-7" value="operators" style="text;html=1;align=center;verticalAlign=middle;resizable=0;points=[];autosize=1;strokeColor=none;fillColor=none;" parent="1" vertex="1">
          <mxGeometry x="490" y="368" width="70" height="30" as="geometry" />
        </mxCell>
        <mxCell id="CxQEVoUlbE7OvthY8f_t-8" value="Good" style="text;html=1;align=center;verticalAlign=middle;resizable=0;points=[];autosize=1;strokeColor=none;fillColor=none;" parent="1" vertex="1">
          <mxGeometry x="397" y="360" width="50" height="30" as="geometry" />
        </mxCell>
        <mxCell id="CxQEVoUlbE7OvthY8f_t-9" value="Write" style="swimlane;fontStyle=1;align=center;verticalAlign=top;childLayout=stackLayout;horizontal=1;startSize=26;horizontalStack=0;resizeParent=1;resizeParentMax=0;resizeLast=0;collapsible=1;marginBottom=0;" parent="1" vertex="1">
          <mxGeometry x="130" y="334" width="88.5" height="34" as="geometry">
            <mxRectangle x="121.5" y="334" width="70" height="30" as="alternateBounds" />
          </mxGeometry>
        </mxCell>
        <mxCell id="CxQEVoUlbE7OvthY8f_t-10" value="" style="line;strokeWidth=1;fillColor=none;align=left;verticalAlign=middle;spacingTop=-1;spacingLeft=3;spacingRight=3;rotatable=0;labelPosition=right;points=[];portConstraint=eastwest;" parent="CxQEVoUlbE7OvthY8f_t-9" vertex="1">
          <mxGeometry y="26" width="88.5" height="8" as="geometry" />
        </mxCell>
        <mxCell id="CxQEVoUlbE7OvthY8f_t-11" value="" style="endArrow=open;html=1;endSize=12;startArrow=diamondThin;startSize=14;startFill=0;edgeStyle=orthogonalEdgeStyle;align=left;verticalAlign=bottom;exitX=0.5;exitY=1;exitDx=0;exitDy=0;entryX=0.575;entryY=1;entryDx=0;entryDy=0;entryPerimeter=0;" parent="1" source="CxQEVoUlbE7OvthY8f_t-9" target="Nu7ug7uPrZ7eWtUiJU7z-6" edge="1">
          <mxGeometry x="0.859" y="1" relative="1" as="geometry">
            <mxPoint x="324" y="378" as="sourcePoint" />
            <mxPoint x="610" y="260" as="targetPoint" />
            <mxPoint as="offset" />
            <Array as="points">
              <mxPoint x="174" y="400" />
              <mxPoint x="599" y="400" />
              <mxPoint x="599" y="250" />
            </Array>
          </mxGeometry>
        </mxCell>
        <mxCell id="CxQEVoUlbE7OvthY8f_t-12" value="Good" style="text;html=1;align=center;verticalAlign=middle;resizable=0;points=[];autosize=1;strokeColor=none;fillColor=none;" parent="1" vertex="1">
          <mxGeometry x="230" y="360" width="50" height="30" as="geometry" />
        </mxCell>
        <mxCell id="CxQEVoUlbE7OvthY8f_t-13" value="Good" style="text;html=1;align=center;verticalAlign=middle;resizable=0;points=[];autosize=1;strokeColor=none;fillColor=none;" parent="1" vertex="1">
          <mxGeometry x="180" y="360" width="50" height="30" as="geometry" />
        </mxCell>
        <mxCell id="CxQEVoUlbE7OvthY8f_t-14" value="Good" style="text;html=1;align=center;verticalAlign=middle;resizable=0;points=[];autosize=1;strokeColor=none;fillColor=none;" parent="1" vertex="1">
          <mxGeometry x="-150" y="360" width="50" height="30" as="geometry" />
        </mxCell>
        <mxCell id="CxQEVoUlbE7OvthY8f_t-15" value="conditional" style="text;html=1;align=center;verticalAlign=middle;resizable=0;points=[];autosize=1;strokeColor=none;fillColor=none;" parent="1" vertex="1">
          <mxGeometry x="-243" y="408" width="80" height="30" as="geometry" />
        </mxCell>
        <mxCell id="CxQEVoUlbE7OvthY8f_t-16" value="loopBody" style="text;html=1;align=center;verticalAlign=middle;resizable=0;points=[];autosize=1;strokeColor=none;fillColor=none;" parent="1" vertex="1">
          <mxGeometry x="-380" y="438" width="70" height="30" as="geometry" />
        </mxCell>
        <mxCell id="CxQEVoUlbE7OvthY8f_t-17" value="Good" style="text;html=1;align=center;verticalAlign=middle;resizable=0;points=[];autosize=1;strokeColor=none;fillColor=none;" parent="1" vertex="1">
          <mxGeometry x="-228" y="360" width="50" height="30" as="geometry" />
        </mxCell>
        <mxCell id="CxQEVoUlbE7OvthY8f_t-18" value="" style="endArrow=open;html=1;endSize=12;startArrow=diamondThin;startSize=14;startFill=0;edgeStyle=orthogonalEdgeStyle;align=left;verticalAlign=bottom;" parent="1" edge="1">
          <mxGeometry x="0.859" y="1" relative="1" as="geometry">
            <mxPoint x="-490" y="370" as="sourcePoint" />
            <mxPoint x="290" y="240" as="targetPoint" />
            <mxPoint as="offset" />
            <Array as="points">
              <mxPoint x="-490" y="430" />
              <mxPoint x="-520" y="430" />
              <mxPoint x="-520" y="240" />
            </Array>
          </mxGeometry>
        </mxCell>
        <mxCell id="CxQEVoUlbE7OvthY8f_t-19" value="*" style="edgeLabel;html=1;align=center;verticalAlign=middle;resizable=0;points=[];" parent="CxQEVoUlbE7OvthY8f_t-18" connectable="0" vertex="1">
          <mxGeometry x="0.938" y="-2" relative="1" as="geometry">
            <mxPoint as="offset" />
          </mxGeometry>
        </mxCell>
        <mxCell id="CxQEVoUlbE7OvthY8f_t-20" value="ifBody" style="text;html=1;align=center;verticalAlign=middle;resizable=0;points=[];autosize=1;strokeColor=none;fillColor=none;" parent="1" vertex="1">
          <mxGeometry x="-540" y="438" width="60" height="30" as="geometry" />
        </mxCell>
        <mxCell id="CxQEVoUlbE7OvthY8f_t-21" value="elseBody" style="text;html=1;align=center;verticalAlign=middle;resizable=0;points=[];autosize=1;strokeColor=none;fillColor=none;" parent="1" vertex="1">
          <mxGeometry x="-530" y="270" width="70" height="30" as="geometry" />
        </mxCell>
        <mxCell id="CxQEVoUlbE7OvthY8f_t-22" value="Good" style="text;html=1;align=center;verticalAlign=middle;resizable=0;points=[];autosize=1;strokeColor=none;fillColor=none;" parent="1" vertex="1">
          <mxGeometry x="-413" y="360" width="50" height="30" as="geometry" />
        </mxCell>
        <mxCell id="CxQEVoUlbE7OvthY8f_t-23" value="Good" style="text;html=1;align=center;verticalAlign=middle;resizable=0;points=[];autosize=1;strokeColor=none;fillColor=none;" parent="1" vertex="1">
          <mxGeometry x="-50" y="360" width="50" height="30" as="geometry" />
        </mxCell>
        <mxCell id="CxQEVoUlbE7OvthY8f_t-26" value="(Check expressions for more detail)" style="text;html=1;align=center;verticalAlign=middle;resizable=0;points=[];autosize=1;strokeColor=none;fillColor=none;" parent="1" vertex="1">
          <mxGeometry x="-65.5" y="368" width="210" height="30" as="geometry" />
        </mxCell>
      </root>
    </mxGraphModel>
  </diagram>
</mxfile>
